<svg viewBox="0 0 512 518" xmlns="http://www.w3.org/2000/svg"><path d="M337 289q-7 0-13 3.5t-11 10q-5 6.5-7 15t-3 17.5q1 10 3 18.5t7 14.5q5 6 11 9.5t13 3.5q6 0 12.5-3.5T360 368q4-6 7.5-14.5T370 335q1-9-2.5-17.5t-7.5-15q-4-6.5-10.5-10T337 289zm115-120q3-3 3-14t-1-26.5q-1-15.5-5.5-34.5T437 56q-1 0-9 1.5t-23.5 7Q389 70 368 80.5T320 109q-5-1-13-2.5t-15.5-2q-7.5-.5-17.5-1t-18-.5q-10 0-19 .5t-17.5 1q-8.5.5-15.5 2t-14 2.5q-25-18-47-28.5t-36.5-16Q92 59 83 57.5T75 56q-9 19-12.5 38T57 128.5Q55 144 56 155t2 14q-8 10-15.5 20.5t-12 23q-4.5 12.5-8 26T20 268q-1 69 24 107t57 56q32 18 64 21t46 3h88q16 0 47-3t64-21q33-18 57-56t25-107q-1-16-3.5-29.5t-8-26q-5.5-12.5-12-23T452 169zM257 433h-3q-35 0-67-3.5T132.5 415q-22.5-11-36-32T84 327q-1-8 1-16t4.5-16q2.5-8 8-15t11.5-13q13-11 28-14.5t34.5-3.5q19.5 0 40 2t43.5 2q-1 0 0 0h.5q-.5 0 0 0h-.5.5q-.5 0 0 0h1.5q21 0 42.5-2t40-2q18.5 0 34.5 3.5t27 14.5q8 6 12.5 13t8 15q3.5 8 4.5 16l2 16q-1 35-13.5 56t-36 32Q355 426 324 429.5t-68 3.5h1zm-82-144q-8 0-13.5 3.5t-10.5 10q-5 6.5-7.5 15T140 335q1 10 3.5 18.5T151 368q5 6 10.5 9.5T175 381q6 0 12.5-3.5T198 368q4-6 7-14.5t2-18.5q1-9-2-17.5t-7-15q-4-6.5-10.5-10T175 289z"/></svg>