<svg viewBox="0 0 512 518" xmlns="http://www.w3.org/2000/svg"><path d="M389 256q0 28-10.5 52T350 350.5Q332 369 308 379t-52 11q-28-1-52-11t-42-28.5Q144 332 133.5 308T123 256v-6.5q0-3.5.5-6.5t1-6.5q.5-3.5.5-5.5l-89-1v178q0 13 5.5 26T56 456q9 9 21.5 15t27.5 5l302 1q15-1 27.5-6t21.5-15q9-10 14.5-22t5.5-27V231l-89-1q0 4 .5 6.5t1 6.5q.5 4 .5 6.5v7.5-1zm18-221l-302 1q-15-1-27.5 5T56 56q-9 9-14.5 22T36 104v76l111-1q9-12 21-23t26-17.5q14-6.5 29.5-11.5t32.5-4q17-1 32.5 4t29.5 11.5q14 6.5 26 17.5t21 23l111 1v-76q0-13-5.5-26T456 56q-9-9-21.5-15T407 36v-1zm34 85q0 4-1 5.5t-2.5 4q-1.5 2.5-4 3T429 134l-37-1q-3 1-5-.5t-3.5-3q-1.5-1.5-2.5-4t-1-4.5V84q0-2 1-4.5t2.5-4q1.5-1.5 3.5-3t5-.5l37-1q2 1 4.5 1.5t4 3q1.5 2.5 2.5 4t1 5.5v35zM338 257q0-18-6.5-32.5t-17.5-26Q303 187 288 181t-32-7q-17 1-32 7t-26 17.5q-11 11.5-17.5 26T174 257q0 16 6.5 31t17.5 26q11 11 26 18t32 6q17 1 32-6t26-18q11-11 17.5-26t6.5-31z"/></svg>