<svg viewBox="0 0 512 518" xmlns="http://www.w3.org/2000/svg"><path d="M435 333q-7-5-15-7.5t-16-2q-8 .5-15 4.5t-13 12q-5 7-26 30t-56 43q-35 20-83.5 29.5T101 433q2 2 4.5 4t5 3.5 5 3.5q2.5 2 4.5 4 40 28 86 37.5t90.5 2q44.5-7.5 84-32T449 391q5-8 6.5-16t-.5-15.5q-2-7.5-7-14.5t-13-12zm-313-16q-3-8-12.5-37.5t-9.5-70q0-40.5 16.5-87.5T180 32l-6 2q-3 1-5.5 2.5T163 39q-3 1-6 3-44 20-75 55t-47 77.5q-16 42.5-14.5 89T42 354q4 9 10.5 14t14 7q7.5 2 16 1.5T99 372q8-4 14.5-10t9.5-13q3-7 3-15.5t-4-16.5zM277 21q-9-1-16.5 1.5t-13.5 8q-6 5.5-9.5 13.5T234 61q-1 9 1 17.5t6.5 15Q246 100 253 104t16 5q9 0 39.5 7t65.5 27q35 20 67 57.5T487 301q1-3 1.5-6l1-6q.5-3 .5-6.5t1-6.5q4-48-10.5-92.5t-43.5-79q-29-34.5-70-57T277 21zM176 269q-2 6-3.5 11.5t-2 10.5q-.5 5 .5 8t3 4q1 1 3 .5t4-2q2-1.5 4-4t4-5.5q1 4 2.5 7t3.5 6q2 3 4 5.5t5 5.5q-3 1-5.5 2.5t-4 3Q193 323 192 325t-1 4q0 3 2.5 6t7 5.5q4.5 2.5 10 3.5t12.5 1q6 0 11-1t9.5-2.5q4.5-1.5 7-4t3.5-5.5h4q1 3 3.5 5.5t7 4q4.5 1.5 9.5 2.5t11 1q7 0 12.5-1t10-3.5q4.5-2.5 7-5.5t2.5-6q0-2-1-4t-2.5-3.5q-1.5-1.5-4-3T308 316q3-3 5-5.5t4-5.5q2-3 3.5-6t2.5-7q2 3 4 5.5t4 4q2 1.5 4 2t3-.5q2-1 3-4t.5-8q-.5-5-2-10.5T336 269q-2-5-4.5-9t-5-7q-2.5-3-4.5-5t-4-3v-.5-1-.5q0-2-.5-3.5l-1-3q-.5-1.5-1-3.5t-1.5-3v-.5-.5-1.5-1.5q0-1-.5-1.5t-.5-1.5q-1-12-5-22.5T296.5 182q-7.5-8-17.5-12.5t-23-4.5q-13 0-23 4.5T215.5 182q-7.5 8-11.5 18.5t-5 22.5q0 1-.5 1.5t-.5 1.5v4q-1 2-1.5 3.5l-1 3-1 3q-.5 1.5-.5 3.5v2q-2 1-4 3t-4.5 5q-2.5 3-5 7t-4.5 9z"/></svg>