<svg viewBox="0 0 512 518" xmlns="http://www.w3.org/2000/svg"><path d="M492 110q-7 3-13.5 5t-13.5 4.5q-7 2.5-14.5 3.5t-14.5 3q7-6 14-11t12-12.5q5-7.5 9.5-14.5t6.5-17q-7 5-14 8.5T449 86q-8 3-16 5t-16 5q-6-8-14-13.5t-17-10q-9-4.5-19-6T347 64q-20 1-38 8t-31 21q-13 14-20.5 31t-7.5 38v5q0 3 .5 5.5t1 5.5q.5 3 .5 5-30-1-58-9t-53.5-20.5Q115 141 93 122.5T53 83q-3 4-5.5 10.5t-4 12Q42 111 41 118t-1 12q0 14 3 25t9 22q6 11 13.5 19T83 212q-6-1-11.5-1.5t-11-2.5q-5.5-2-11-3.5T39 199v2q0 17 6 33t16.5 28Q72 274 86 283t31 12q-3 2-6 2t-6.5 1q-3.5 1-6.5.5t-7 .5q-2-1-4-.5t-4.5 0q-2.5-.5-5-.5t-4.5-2q5 16 13.5 27.5t20.5 21q12 9.5 26.5 14T164 365q-13 8-27 16.5t-29 13q-15 4.5-31 8T44 405q-3 1-6 .5t-6-.5-6-.5q-3-.5-6 .5 17 9 34 17.5T90 436q19 5 38.5 8.5T169 447q66 1 117.5-24.5T373 358q35-39 53-88.5t18-96.5v-4q0-1-.5-3t-.5-3v-3q7-5 14-11t13-12q6-6 11.5-13t10.5-13v-1z"/></svg>