<svg viewBox="0 0 516 518" xmlns="http://www.w3.org/2000/svg"><path d="M381 257q-3-1-5-1.5t-3-2.5q-1-2-1.5-3.5t1.5-6.5q3-6 4.5-13.5T379 216q0-6-1.5-12.5T373 194q-6-10-17-14t-25.5-4q-14.5 0-32 4.5T262 192q0 1-2.5 1.5l-5 1q-2.5.5-4.5-1.5t0-6q3-10 4-18.5t.5-16.5q-.5-8-3-13.5T244 127q-10-9-28-10t-40.5 8.5q-22.5 9.5-47 26T81 193q-18 17-32 36t-23.5 36.5Q16 283 11 301t-5 34q0 32 18 57.5T72 437q30 19 67.5 28.5T215 476q51-1 93-15t71.5-36.5q29.5-22.5 45.5-48t16-50.5q0-14-5-25.5t-14-20q-9-8.5-19.5-14.5t-21.5-9zM216 437q-31 4-59-1.5T107.5 419q-21.5-11-35-28T56 354q-2-21 8-39.5T93 280q19-16 45.5-26t57.5-14q31-2 59 2.5t50 16q22 11.5 35.5 28T356 325q2 19-8 38.5T319 398q-19 15-45.5 26T216 437zm300-248q0-33-12.5-60.5t-33-48.5Q450 59 422 47t-60-13q-4 1-7 2t-5.5 4q-2.5 3-4 6t-1.5 7q0 3 1.5 7t4 5.5Q352 67 355 69t7 1q24 1 45.5 10t37.5 25.5q16 16.5 25.5 37.5t9.5 46q0 3 1.5 6.5t3.5 5.5q2 2 5.5 4t7.5 1q3 1 6.5-1t6-4q2.5-2 4-5.5t1.5-6.5v-.5q0 .5 0 0v-.5 1zm-72-3q-3-16-10-28.5T416.5 134Q406 123 393 116.5T365 106h-7.5q-3.5 0-6.5 2.5t-5 5q-2 2.5-2 7.5-1 2-.5 6t2.5 6.5q2 2.5 5 5t7 2.5q9 3 17.5 7t15.5 11.5q7 7.5 11.5 15.5t6.5 19q1 2 3 5.5t5 5q3 1.5 6.5 2.5t6.5-1q4 1 7-1.5t5-5q2-2.5 2.5-6.5t-.5-7zM173 293q-12 4-22 9.5T134 317q-7 9-10 18.5t-1 20.5q2 10 8.5 18.5T148 388q10 5 21.5 7t24.5-2q12-1 22-7.5t17-14.5q7-8 10-18.5t1-20.5q-2-11-9-19t-16.5-13.5q-9.5-5.5-21-6.5t-24.5 0z"/></svg>